<?xml version="1.0" standalone="no"?>
<!DOCTYPE svg PUBLIC "-//W3C//DTD SVG 20010904//EN"
 "http://www.w3.org/TR/2001/REC-SVG-20010904/DTD/svg10.dtd">
<svg version="1.0" xmlns="http://www.w3.org/2000/svg"
 width="125.000000pt" height="125.000000pt" viewBox="0 0 125.000000 125.000000"
 preserveAspectRatio="xMidYMid meet">

<g transform="translate(0.000000,125.000000) scale(0.100000,-0.100000)"
fill="#000000" stroke="none">
<path d="M0 625 l0 -625 625 0 625 0 0 625 0 625 -625 0 -625 0 0 -625z m273
130 c20 -42 37 -78 37 -80 0 -3 -8 -5 -18 -5 -13 0 -28 19 -47 60 -16 33 -32
60 -37 60 -4 0 -8 6 -8 14 0 8 -6 17 -12 19 -7 3 1 6 17 6 28 1 33 -5 68 -74z
m297 56 c-5 -11 -10 -47 -10 -80 0 -54 -2 -61 -20 -61 -18 0 -20 7 -20 80 l0
80 30 0 c27 0 30 -2 20 -19z m374 -74 c23 -62 24 -67 7 -67 -13 0 -24 15 -36
48 -10 26 -22 52 -27 59 -6 7 -5 20 3 34 14 27 16 23 53 -74z m-346 -132 c9
-17 7 -20 -13 -20 -20 0 -21 3 -12 23 6 12 11 21 12 20 1 -2 7 -12 13 -23z
m311 16 c19 -12 6 -41 -19 -41 -13 0 -20 7 -20 18 0 31 14 39 39 23z m-556
-13 c4 -10 8 -9 17 2 10 13 11 13 7 0 -5 -19 -47 -22 -47 -4 0 17 17 18 23 2z
m87 -18 c5 0 11 7 13 15 4 11 4 10 3 -2 -1 -10 -9 -19 -19 -21 -12 -3 -17 3
-16 20 1 17 3 18 6 6 2 -10 8 -18 13 -18z m90 5 c0 -17 -2 -17 -10 -5 -9 13
-11 13 -20 0 -8 -12 -10 -12 -10 5 0 14 6 21 20 21 14 0 20 -7 20 -21z m137
13 c6 16 23 15 23 -2 0 -18 -42 -15 -47 4 -4 13 -3 13 7 0 9 -11 13 -12 17 -2z
m90 3 c10 9 13 6 13 -12 0 -17 -3 -20 -9 -11 -4 8 -12 14 -16 14 -4 0 -12 -6
-16 -14 -6 -9 -9 -6 -9 12 0 18 3 21 12 12 8 -8 15 -9 25 -1z m80 -8 c2 -6 -5
-13 -17 -16 -22 -6 -23 -5 -14 18 7 17 25 16 31 -2z m-452 -83 c15 -29 13 -70
-4 -70 -4 0 -17 23 -28 50 -21 48 -21 50 -2 50 11 0 25 -13 34 -30z m175 -21
c0 -28 5 -59 10 -70 10 -17 7 -19 -30 -19 -37 0 -40 2 -30 19 5 11 10 42 10
70 0 44 3 51 20 51 17 0 20 -7 20 -51z m226 5 c-1 -38 3 -50 25 -66 21 -16 30
-17 55 -8 16 6 37 21 47 33 l18 22 -11 -23 c-15 -31 -54 -54 -94 -55 -61 -2
-96 49 -76 109 17 50 36 43 36 -12z m249 -6 c10 -28 26 -59 37 -70 17 -17 16
-18 -39 -18 -51 0 -55 1 -38 14 17 12 18 19 9 53 -6 21 -15 46 -19 56 -5 13
-2 17 12 17 14 0 24 -14 38 -52z m-778 -75 c14 -11 10 -13 -31 -13 -47 0 -47
0 -32 22 9 12 16 36 16 53 1 29 1 29 15 -10 8 -22 22 -45 32 -52z"/>
<path d="M880 606 c0 -9 7 -16 16 -16 17 0 14 22 -4 28 -7 2 -12 -3 -12 -12z"/>
</g>
</svg>
